<svg version="1.1" id="Layer_1" xmlns="http://www.w3.org/2000/svg" xmlns:xlink="http://www.w3.org/1999/xlink" x="0px" y="0px"
	 width="100%" viewBox="0 0 66 148" enable-background="new 0 0 66 148" xml:space="preserve">
<path fill="#162026" opacity="1.000000" stroke="none" 
	d="
M36.000000,149.000000 
	C24.013449,149.000000 12.526897,149.000000 1.020173,149.000000 
	C1.020173,99.737816 1.020173,50.475620 1.020173,1.106712 
	C22.902670,1.106712 44.806034,1.106712 66.854698,1.106712 
	C66.854698,50.332977 66.854698,99.666458 66.854698,149.000000 
	C56.809513,149.000000 46.654758,149.000000 36.000000,149.000000 
M25.134232,52.452290 
	C25.745474,66.148819 26.356716,79.845345 26.981876,93.853745 
	C31.418550,93.853745 35.068848,93.660042 38.688492,93.910080 
	C42.077045,94.144157 42.839046,92.690842 42.939075,89.567177 
	C43.417809,74.616661 44.219921,59.676609 44.715149,44.726479 
	C44.949947,37.638321 44.755466,30.535946 44.755466,23.264614 
	C38.130753,23.264614 31.277309,23.264614 25.127716,23.264614 
	C25.127716,32.926113 25.127716,42.198563 25.134232,52.452290 
M44.662415,126.069916 
	C45.186584,124.860092 45.875385,123.693405 46.205734,122.432785 
	C47.472046,117.600502 46.534561,112.817123 41.984966,110.836281 
	C38.622688,109.372375 33.884506,109.159576 30.410868,110.327393 
	C25.710478,111.907608 24.337843,116.663269 25.096058,121.539116 
	C26.453510,130.268463 36.464672,132.907150 44.662415,126.069916 
z"/>
<path fill="#2CC2AF" opacity="1.000000" stroke="none" 
	d="
M25.130974,51.961651 
	C25.127716,42.198563 25.127716,32.926113 25.127716,23.264614 
	C31.277309,23.264614 38.130753,23.264614 44.755466,23.264614 
	C44.755466,30.535946 44.949947,37.638321 44.715149,44.726479 
	C44.219921,59.676609 43.417809,74.616661 42.939075,89.567177 
	C42.839046,92.690842 42.077045,94.144157 38.688492,93.910080 
	C35.068848,93.660042 31.418550,93.853745 26.981876,93.853745 
	C26.356716,79.845345 25.745474,66.148819 25.130974,51.961651 
z"/>
<path fill="#FAFAFA" opacity="1.000000" stroke="none" 
	d="
M44.406677,126.351852 
	C36.464672,132.907150 26.453510,130.268463 25.096058,121.539116 
	C24.337843,116.663269 25.710478,111.907608 30.410868,110.327393 
	C33.884506,109.159576 38.622688,109.372375 41.984966,110.836281 
	C46.534561,112.817123 47.472046,117.600502 46.205734,122.432785 
	C45.875385,123.693405 45.186584,124.860092 44.406677,126.351852 
z"/>
</svg>