<svg xmlns="http://www.w3.org/2000/svg" viewBox="0 0 500 500"><g id="freepik--Floor--inject-34"><path id="freepik--floor--inject-34" d="M94.35,268.47c-86,49.63-86,130.1,0,179.73s225.34,49.63,311.3,0,86-130.1,0-179.73S180.31,218.84,94.35,268.47Z" style="fill:#f5f5f5"></path></g><g id="freepik--Plant--inject-34"><g id="freepik--Plants--inject-34"><path d="M68.87,320.78l-13.69,7.91c.18-4.89.61-12.16-.07-17.05C51,281.7,39.32,271.83,33.77,257.26,27.93,241.92,35.05,237,44.3,239.74c8.25,2.46,20.19,14.67,24,37C70.75,291.61,70.31,307.75,68.87,320.78Z" style="fill:#BA68C8"></path><path d="M68.87,320.78l-13.69,7.91c.18-4.89.61-12.16-.07-17.05C51,281.7,39.32,271.83,33.77,257.26,27.93,241.92,35.05,237,44.3,239.74c8.25,2.46,20.19,14.67,24,37C70.75,291.61,70.31,307.75,68.87,320.78Z" style="fill:#fff;opacity:0.65"></path><path d="M61.62,325l-1.38.79c4.9-34.9-7-65.16-18.81-77.66a.6.6,0,0,1,.88-.83C54.08,259.78,66,290.25,61.62,325Z" style="fill:#fff"></path><path d="M59,326.46l-7.71,4.45h0C47.22,318.85,43,314,37.79,306.08c-4.76-7.22-10.3-11.69-13.24-16.76-2.6-4.5-4.56-10.14-.69-13.56,6.16-5.44,14.2.31,19.73,6.53C48.36,287.67,58,302,59,326.46Z" style="fill:#BA68C8"></path><path d="M59,326.46l-7.71,4.45h0C47.22,318.85,43,314,37.79,306.08c-4.76-7.22-10.3-11.69-13.24-16.76-2.6-4.5-4.56-10.14-.69-13.56,6.16-5.44,14.2.31,19.73,6.53C48.36,287.67,58,302,59,326.46Z" style="fill:#fff;opacity:0.30000000000000004"></path><path d="M55.87,328.29l-1.13.65c-3.23-19.08-16.19-41.16-24.25-46.37a.61.61,0,0,1-.17-.85.59.59,0,0,1,.84-.18C39.5,286.94,52.43,308.91,55.87,328.29Z" style="fill:#fff"></path></g></g><g id="freepik--Gears--inject-34"><g id="freepik--Gear--inject-34"><path d="M288.12,82.64a1.11,1.11,0,0,1,1.12.11l5.53,3.45a1.62,1.62,0,0,0,2.2-.5A10.41,10.41,0,0,1,298,84.41a2.62,2.62,0,0,0,.61-2.56l-.54-1.36L295.73,79a1.08,1.08,0,0,0-1.14-.08h0Zm25.38,37.43c5.85,4.37,11.42,3.87,13.57-.76a13.75,13.75,0,0,1-7.08-3c-6.78-5.06-11.37-14.75-10.23-21.63a10.54,10.54,0,0,1,.73-2.55c-3.69-.25-6.49,1.95-7.21,6.29C302.14,105.32,306.72,115,313.5,120.07ZM296.34,72.83a1.67,1.67,0,0,1,.41-.16l4.14-1a2.28,2.28,0,0,1,2.35,1l4,7.18a3,3,0,0,0,.89,1,4.35,4.35,0,0,0,1.48.73,19.54,19.54,0,0,1,2.56.78,1.42,1.42,0,0,0,2-.89l1.17-4a3.18,3.18,0,0,1-.67-.43h0a3.26,3.26,0,0,1-.88-.95l-4-7.18a2.28,2.28,0,0,0-2.36-1l-4.13,1a1.49,1.49,0,0,0-.43.17h0Zm25.29,62.38h0a1.15,1.15,0,0,0,.53-.7l.17-.58a3.11,3.11,0,0,0-.8-.32,18.73,18.73,0,0,1-2.56-.79,1.42,1.42,0,0,0-2,.89l-1.34,4.54a1.21,1.21,0,0,1-.39.62ZM316,76.26a1.07,1.07,0,0,1,1.22.16l6.26,4.67a3.23,3.23,0,0,1,1.05,1.56,2.51,2.51,0,0,1,.16,1l-.3,5.74a4.46,4.46,0,0,0,1,2.77c1,1.17,2,2.4,2.92,3.67a3.13,3.13,0,0,0,1.38,1,2.78,2.78,0,0,0,1.15.21l4-.24a2.56,2.56,0,0,1,1.65.56,2.12,2.12,0,0,1,.65.79l3.84,8.13a1.54,1.54,0,0,1-.81,2.08l-3.21,1.37a2,2,0,0,0-1.08,2.18,32,32,0,0,1,.74,3.89,4.88,4.88,0,0,0,1.38,2.63l.07.06,5.48,4.79a3.13,3.13,0,0,1,.88,1.51,2.7,2.7,0,0,1,.07,1.12l-1,5.84a1.11,1.11,0,0,1-.45.78l6.46-3.72a1.14,1.14,0,0,0,.47-.8l1-5.84a3.1,3.1,0,0,0-.44-2,1.59,1.59,0,0,0-.22-.35l0-.05a1.79,1.79,0,0,0-.27-.28l-5.49-4.8-.07,0a4.8,4.8,0,0,1-1.37-2.63,34.09,34.09,0,0,0-.74-3.89,1.9,1.9,0,0,1,.09-1.13l4.4-2.53a1.52,1.52,0,0,0,.6-2l-3.84-8.14a2.28,2.28,0,0,0-.65-.78,2.39,2.39,0,0,0-.58-.34,2.08,2.08,0,0,0-.32-.12s0,0,0,0a.72.72,0,0,0-.29-.06,1.84,1.84,0,0,0-.33,0h-.09l-4,.24a1.4,1.4,0,0,1-.35,0,1.09,1.09,0,0,1-.26,0,2.81,2.81,0,0,1-.55-.15,3.13,3.13,0,0,1-1.38-1q-1.38-1.9-2.92-3.68a4.47,4.47,0,0,1-1-2.76l.3-5.75a2.65,2.65,0,0,0-.17-1h0c0-.08-.06-.16-.08-.24a3.81,3.81,0,0,0-.55-.94c-.06-.06-.1-.12-.17-.18a2.5,2.5,0,0,0-.24-.22l-6.26-4.67a1.23,1.23,0,0,0-.77-.27.89.89,0,0,0-.45.12Zm19.4,64.44a1.33,1.33,0,0,1-.54,1.66l6.5-3.75h0a1.33,1.33,0,0,0,.54-1.65l-2.35-6-3.16-2a1.62,1.62,0,0,0-2.2.51,11.13,11.13,0,0,1-1.05,1.29,2.6,2.6,0,0,0-.62,2.55Z" style="fill:#e6e6e6"></path><path d="M288.12,82.64a1.11,1.11,0,0,1,1.12.11l5.53,3.45a1.62,1.62,0,0,0,2.2-.5A10.41,10.41,0,0,1,298,84.41a2.62,2.62,0,0,0,.61-2.56l-.54-1.36L295.73,79a1.08,1.08,0,0,0-1.14-.08h0Zm25.38,37.43c5.85,4.37,11.42,3.87,13.57-.76a13.75,13.75,0,0,1-7.08-3c-6.78-5.06-11.37-14.75-10.23-21.63a10.54,10.54,0,0,1,.73-2.55c-3.69-.25-6.49,1.95-7.21,6.29C302.14,105.32,306.72,115,313.5,120.07ZM296.34,72.83a1.67,1.67,0,0,1,.41-.16l4.14-1a2.28,2.28,0,0,1,2.35,1l4,7.18a3,3,0,0,0,.89,1,4.35,4.35,0,0,0,1.48.73,19.54,19.54,0,0,1,2.56.78,1.42,1.42,0,0,0,2-.89l1.17-4a3.18,3.18,0,0,1-.67-.43h0a3.26,3.26,0,0,1-.88-.95l-4-7.18a2.28,2.28,0,0,0-2.36-1l-4.13,1a1.49,1.49,0,0,0-.43.17h0Zm25.29,62.38h0a1.15,1.15,0,0,0,.53-.7l.17-.58a3.11,3.11,0,0,0-.8-.32,18.73,18.73,0,0,1-2.56-.79,1.42,1.42,0,0,0-2,.89l-1.34,4.54a1.21,1.21,0,0,1-.39.62ZM316,76.26a1.07,1.07,0,0,1,1.22.16l6.26,4.67a3.23,3.23,0,0,1,1.05,1.56,2.51,2.51,0,0,1,.16,1l-.3,5.74a4.46,4.46,0,0,0,1,2.77c1,1.17,2,2.4,2.92,3.67a3.13,3.13,0,0,0,1.38,1,2.78,2.78,0,0,0,1.15.21l4-.24a2.56,2.56,0,0,1,1.65.56,2.12,2.12,0,0,1,.65.79l3.84,8.13a1.54,1.54,0,0,1-.81,2.08l-3.21,1.37a2,2,0,0,0-1.08,2.18,32,32,0,0,1,.74,3.89,4.88,4.88,0,0,0,1.38,2.63l.07.06,5.48,4.79a3.13,3.13,0,0,1,.88,1.51,2.7,2.7,0,0,1,.07,1.12l-1,5.84a1.11,1.11,0,0,1-.45.78l6.46-3.72a1.14,1.14,0,0,0,.47-.8l1-5.84a3.1,3.1,0,0,0-.44-2,1.59,1.59,0,0,0-.22-.35l0-.05a1.79,1.79,0,0,0-.27-.28l-5.49-4.8-.07,0a4.8,4.8,0,0,1-1.37-2.63,34.09,34.09,0,0,0-.74-3.89,1.9,1.9,0,0,1,.09-1.13l4.4-2.53a1.52,1.52,0,0,0,.6-2l-3.84-8.14a2.28,2.28,0,0,0-.65-.78,2.39,2.39,0,0,0-.58-.34,2.08,2.08,0,0,0-.32-.12s0,0,0,0a.72.72,0,0,0-.29-.06,1.84,1.84,0,0,0-.33,0h-.09l-4,.24a1.4,1.4,0,0,1-.35,0,1.09,1.09,0,0,1-.26,0,2.81,2.81,0,0,1-.55-.15,3.13,3.13,0,0,1-1.38-1q-1.38-1.9-2.92-3.68a4.47,4.47,0,0,1-1-2.76l.3-5.75a2.65,2.65,0,0,0-.17-1h0c0-.08-.06-.16-.08-.24a3.81,3.81,0,0,0-.55-.94c-.06-.06-.1-.12-.17-.18a2.5,2.5,0,0,0-.24-.22l-6.26-4.67a1.23,1.23,0,0,0-.77-.27.89.89,0,0,0-.45.12Zm19.4,64.44a1.33,1.33,0,0,1-.54,1.66l6.5-3.75h0a1.33,1.33,0,0,0,.54-1.65l-2.35-6-3.16-2a1.62,1.62,0,0,0-2.2.51,11.13,11.13,0,0,1-1.05,1.29,2.6,2.6,0,0,0-.62,2.55Z" style="opacity:0.1"></path><path d="M338,118.49l5.48,4.79a3.13,3.13,0,0,1,.88,1.51l6.47-3.73a4.11,4.11,0,0,0-.34-.84,1.59,1.59,0,0,0-.22-.35l0-.05a1.79,1.79,0,0,0-.27-.28l-5.49-4.8Z" style="fill:#e0e0e0"></path><path d="M329.65,96.83a2.78,2.78,0,0,0,1.15.21l4-.24a2.56,2.56,0,0,1,1.65.56l6.48-3.74a2.39,2.39,0,0,0-.58-.34,2.08,2.08,0,0,0-.32-.12s0,0,0,0a.72.72,0,0,0-.29-.06,1.84,1.84,0,0,0-.33,0h-.09l-4,.24a1.4,1.4,0,0,1-.35,0l-.26,0a5.34,5.34,0,0,1-.53-.16h0Z" style="fill:#e0e0e0"></path><path d="M288.12,82.64a1.08,1.08,0,0,1,1.12.11l5.53,3.45a1.62,1.62,0,0,0,2.2-.51A10.25,10.25,0,0,1,298,84.4a2.58,2.58,0,0,0,.61-2.55l-.54-1.36L295.73,79a1.07,1.07,0,0,0-1.14-.09h0Z" style="fill:#e0e0e0"></path><path d="M296.34,72.83a1.67,1.67,0,0,1,.41-.16l4.14-1a2.28,2.28,0,0,1,2.35,1l4,7.18a3,3,0,0,0,.89,1l6.48-3.76a3.26,3.26,0,0,1-.88-.95l-4-7.18a2.28,2.28,0,0,0-2.36-1l-4.13,1a1.49,1.49,0,0,0-.43.17h0Z" style="fill:#e0e0e0"></path><path d="M316,76.26a1.07,1.07,0,0,1,1.22.16l6.26,4.67a3.23,3.23,0,0,1,1.05,1.56L331,78.92c0-.08-.06-.16-.08-.24a3.81,3.81,0,0,0-.55-.94c-.06-.06-.1-.12-.17-.18a2.5,2.5,0,0,0-.24-.22l-6.26-4.67a1.23,1.23,0,0,0-.77-.27.89.89,0,0,0-.45.12Z" style="fill:#e0e0e0"></path><path d="M287.6,91.93l5.55,4.85a4.84,4.84,0,0,1,1.38,2.64,32.41,32.41,0,0,0,.74,3.89,1.93,1.93,0,0,1-1.09,2.17l-3.2,1.38a1.54,1.54,0,0,0-.81,2.08l3.84,8.13a2.57,2.57,0,0,0,2.31,1.34l4-.24a3.23,3.23,0,0,1,2.54,1.22c.92,1.27,1.9,2.5,2.93,3.67a4.49,4.49,0,0,1,1,2.77l-.3,5.75a3.4,3.4,0,0,0,1.21,2.55l6.26,4.67a1,1,0,0,0,1.74-.56L317,133.7a1.41,1.41,0,0,1,1.94-.89,21.29,21.29,0,0,0,2.56.79,4,4,0,0,1,2.37,1.69l4,7.17a2.27,2.27,0,0,0,2.36,1l4.13-1a1.34,1.34,0,0,0,1-1.84l-2.89-7.34a2.58,2.58,0,0,1,.62-2.55,11.13,11.13,0,0,0,1.05-1.29,1.63,1.63,0,0,1,2.2-.51l5.53,3.45a1,1,0,0,0,1.63-.71l1-5.84a3.17,3.17,0,0,0-.95-2.63L338,118.43a4.85,4.85,0,0,1-1.38-2.63,35,35,0,0,0-.73-3.9,1.91,1.91,0,0,1,1.08-2.17l3.2-1.37a1.53,1.53,0,0,0,.81-2.08l-3.84-8.14a2.59,2.59,0,0,0-2.31-1.34l-4,.24a3.23,3.23,0,0,1-2.54-1.22c-.92-1.27-1.89-2.5-2.93-3.67a4.47,4.47,0,0,1-1-2.77l.3-5.75a3.29,3.29,0,0,0-1.21-2.54l-6.26-4.67a1,1,0,0,0-1.74.55l-1.35,4.54a1.41,1.41,0,0,1-1.94.89,21.29,21.29,0,0,0-2.56-.79,4,4,0,0,1-2.37-1.69l-4-7.17a2.27,2.27,0,0,0-2.36-1l-4.12,1a1.34,1.34,0,0,0-1,1.84l2.89,7.34A2.6,2.6,0,0,1,298,84.4,12.13,12.13,0,0,0,297,85.69a1.61,1.61,0,0,1-2.2.51l-5.53-3.45a1,1,0,0,0-1.63.71l-1,5.85A3.19,3.19,0,0,0,287.6,91.93Zm15.68,6.51c1.13-6.89,7.55-8.36,14.33-3.3s11.36,14.75,10.23,21.64-7.56,8.36-14.34,3.29S302.14,105.32,303.28,98.44Z" style="fill:#f5f5f5"></path><path d="M295.3,116.5v0l-3.85-8.14a.09.09,0,0,1,0-.09.18.18,0,0,1,.09-.09l3.21-1.37a3.32,3.32,0,0,0,1.89-3.81,32.61,32.61,0,0,1-.7-3.74,6.45,6.45,0,0,0-.82-2.24,5.38,5.38,0,0,0-1-1.27l-5.55-4.85a1.25,1.25,0,0,1-.23-.29,1.79,1.79,0,0,1-.26-1l.88-5.32L294,87.4a3,3,0,0,0,4.09-.9,11.44,11.44,0,0,1,.92-1.12,4,4,0,0,0,.91-4L297.08,74l4.12-1a.88.88,0,0,1,.81.34l4,7.17,0,.07v0A5.44,5.44,0,0,0,309.27,83a20.17,20.17,0,0,1,2.38.74,2.93,2.93,0,0,0,2.36-.09,2.71,2.71,0,0,0,1.43-1.72l1.23-4.12,5.93,4.43a1.49,1.49,0,0,1,.36.43,1.83,1.83,0,0,1,.28.91l-.3,5.75a5.76,5.76,0,0,0,.84,3.06,5.61,5.61,0,0,0,.51.71c1,1.12,1.94,2.32,2.84,3.57a4.61,4.61,0,0,0,3.76,1.8l4-.24a1.21,1.21,0,0,1,.94.53h0l3.85,8.14a.13.13,0,0,1,0,.09.15.15,0,0,1-.1.09l-3.21,1.38a3.36,3.36,0,0,0-1.89,3.8,35.49,35.49,0,0,1,.71,3.74,6.12,6.12,0,0,0,.82,2.24,5.12,5.12,0,0,0,1,1.27l5.55,4.86a.93.93,0,0,1,.23.28,1.91,1.91,0,0,1,.27,1.05L342.2,131l-5.11-3.19a3,3,0,0,0-4.1.89,10.07,10.07,0,0,1-.92,1.13,4,4,0,0,0-.91,4l2.87,7.29-4.12,1a.88.88,0,0,1-.81-.34l-4-7.17,0-.07v0a5.5,5.5,0,0,0-3.23-2.29,17.54,17.54,0,0,1-2.38-.74,3,3,0,0,0-2.37.09,2.79,2.79,0,0,0-1.43,1.72l-1.23,4.13L308.51,133a1.67,1.67,0,0,1-.36-.43,1.86,1.86,0,0,1-.28-.92l.3-5.74a5.8,5.8,0,0,0-.84-3.07,4.14,4.14,0,0,0-.51-.71c-1-1.12-1.94-2.32-2.83-3.56a4.61,4.61,0,0,0-3.77-1.8l-4,.24a1.28,1.28,0,0,1-.94-.51m30.33-14.34A28.05,28.05,0,0,0,318.45,94c-4.08-3.05-8.31-4-11.59-2.71-2.65,1.06-4.42,3.52-5,6.91-.72,4.37.59,9.78,3.59,14.85a28.16,28.16,0,0,0,7.18,8.14c4.08,3,8.31,4,11.6,2.72,2.64-1.07,4.41-3.52,5-6.92.72-4.36-.6-9.77-3.6-14.84m-31.54,15.06a2.6,2.6,0,0,0,2.23,1.19l4-.24a3.23,3.23,0,0,1,2.54,1.22c.92,1.27,1.9,2.5,2.93,3.67a4.89,4.89,0,0,1,.35.5,4.36,4.36,0,0,1,.64,2.27l-.3,5.75a3.24,3.24,0,0,0,.48,1.7,2.9,2.9,0,0,0,.73.85l6.26,4.67a1,1,0,0,0,1.74-.56L317,133.7a1.41,1.41,0,0,1,1.94-.89,21.29,21.29,0,0,0,2.56.79,4.12,4.12,0,0,1,2.35,1.64l0,0,4,7.17,0,0a2.26,2.26,0,0,0,2.33,1l4.13-1a1.34,1.34,0,0,0,1-1.84l-2.89-7.34a2.58,2.58,0,0,1,.62-2.55,11.13,11.13,0,0,0,1.05-1.29,1.63,1.63,0,0,1,2.2-.51l5.53,3.45a1,1,0,0,0,1.63-.71l1-5.84a3.11,3.11,0,0,0-.44-2,2.93,2.93,0,0,0-.51-.63L338,118.43a3.53,3.53,0,0,1-.74-.93,4.76,4.76,0,0,1-.64-1.7,35,35,0,0,0-.73-3.9,1.91,1.91,0,0,1,1.08-2.17l3.2-1.37a1.53,1.53,0,0,0,.81-2.08l-3.84-8.14L337,98a2.6,2.6,0,0,0-2.23-1.19l-4,.24a3.23,3.23,0,0,1-2.54-1.22c-.92-1.27-1.89-2.5-2.93-3.67a3.37,3.37,0,0,1-.35-.5,4.43,4.43,0,0,1-.64-2.27l.3-5.75a3.15,3.15,0,0,0-.48-1.7,2.74,2.74,0,0,0-.73-.84l-6.26-4.67a1,1,0,0,0-1.74.55l-1.35,4.54a1.41,1.41,0,0,1-1.94.89,21.29,21.29,0,0,0-2.56-.79A4.07,4.07,0,0,1,307.25,80l0,0-4-7.17,0,0a2.27,2.27,0,0,0-2.34-1l-4.12,1a1.34,1.34,0,0,0-1,1.84l2.89,7.34A2.6,2.6,0,0,1,298,84.4,12.13,12.13,0,0,0,297,85.69a1.61,1.61,0,0,1-2.2.51l-5.53-3.45a1,1,0,0,0-1.63.71l-1,5.85a3.15,3.15,0,0,0,.44,2,2.7,2.7,0,0,0,.51.63l5.55,4.85a3.7,3.7,0,0,1,.74.93,4.73,4.73,0,0,1,.64,1.71,32.41,32.41,0,0,0,.74,3.89,1.93,1.93,0,0,1-1.09,2.17l-3.2,1.38a1.54,1.54,0,0,0-.81,2.08l3.84,8.13.08.15Zm30.33-14.34c2.7,4.56,4.1,9.74,3.42,13.9-1.14,6.88-7.56,8.36-14.34,3.29a26.52,26.52,0,0,1-6.8-7.73c-2.71-4.57-4.11-9.74-3.42-13.9,1.13-6.89,7.55-8.36,14.33-3.3a26.74,26.74,0,0,1,6.81,7.74Z" style="fill:#ebebeb"></path></g><g id="freepik--gear--inject-34"><path d="M355.8,99.46a1.61,1.61,0,0,1,1.66.15l8.23,5.14A2.42,2.42,0,0,0,369,104a16.65,16.65,0,0,1,1.58-1.92,3.86,3.86,0,0,0,.9-3.8l-.8-2-3.52-2.2a1.61,1.61,0,0,0-1.7-.13h0Zm37.74,55.66c8.69,6.49,17,5.75,20.18-1.14-3.18-.21-6.82-1.66-10.53-4.43-10.08-7.53-16.9-21.94-15.22-32.17a16.3,16.3,0,0,1,1.09-3.78c-5.48-.38-9.65,2.89-10.72,9.35C376.65,133.18,383.45,147.59,393.54,155.12ZM368,84.86a2.28,2.28,0,0,1,.62-.23l6.15-1.42a3.38,3.38,0,0,1,3.5,1.53l5.91,10.68a4.9,4.9,0,0,0,1.32,1.43,6.39,6.39,0,0,0,2.21,1.08,31,31,0,0,1,3.81,1.17,2.12,2.12,0,0,0,2.89-1.32l1.74-5.88a5,5,0,0,1-1-.64h0a4.67,4.67,0,0,1-1.31-1.41l-5.92-10.68a3.38,3.38,0,0,0-3.51-1.53l-6.13,1.43a1.92,1.92,0,0,0-.64.26v0Zm37.61,92.77h0a1.7,1.7,0,0,0,.78-1.05l.27-.87a5.31,5.31,0,0,0-1.2-.47,27.61,27.61,0,0,1-3.81-1.17,2.1,2.1,0,0,0-2.89,1.33l-2,6.74a1.73,1.73,0,0,1-.57.92ZM397.19,90a1.61,1.61,0,0,1,1.83.23l9.3,6.94a4.87,4.87,0,0,1,1.56,2.33,3.72,3.72,0,0,1,.24,1.47l-.44,8.54a6.53,6.53,0,0,0,1.48,4.11c1.52,1.74,3,3.58,4.34,5.46a4.63,4.63,0,0,0,2.06,1.5,3.86,3.86,0,0,0,1.71.31l5.94-.35a3.73,3.73,0,0,1,2.46.84,3.44,3.44,0,0,1,1,1.16l5.71,12.1a2.3,2.3,0,0,1-1.21,3.09l-4.77,2a2.9,2.9,0,0,0-1.61,3.24,48.5,48.5,0,0,1,1.1,5.78,7.32,7.32,0,0,0,2.05,3.92l.1.08,8.16,7.13a4.68,4.68,0,0,1,1.3,2.24,3.84,3.84,0,0,1,.11,1.67l-1.43,8.69a1.64,1.64,0,0,1-.66,1.15l9.6-5.53a1.7,1.7,0,0,0,.7-1.19l1.45-8.69a4.54,4.54,0,0,0-.65-2.9,2.34,2.34,0,0,0-.33-.51.35.35,0,0,0-.05-.08,2.56,2.56,0,0,0-.39-.42l-8.17-7.13-.1-.08a7.06,7.06,0,0,1-2-3.92,55.84,55.84,0,0,0-1.1-5.78,2.81,2.81,0,0,1,.12-1.67l6.54-3.77A2.27,2.27,0,0,0,444,129L438.27,117a3.44,3.44,0,0,0-1-1.17,4.34,4.34,0,0,0-.86-.51,3.68,3.68,0,0,0-.49-.18.06.06,0,0,0,0,0,3.12,3.12,0,0,0-.44-.09,3.88,3.88,0,0,0-.48,0h-.15l-5.92.35a1.91,1.91,0,0,1-.53,0,1.76,1.76,0,0,1-.39-.06,3.63,3.63,0,0,1-.81-.22,4.65,4.65,0,0,1-2.05-1.5A69.27,69.27,0,0,0,420.8,108a6.67,6.67,0,0,1-1.49-4.12l.45-8.55a3.86,3.86,0,0,0-.26-1.44h0c0-.11-.09-.24-.12-.35a5.54,5.54,0,0,0-.82-1.4,1.6,1.6,0,0,0-.25-.27,2.17,2.17,0,0,0-.36-.32l-9.31-7a1.86,1.86,0,0,0-1.14-.41,1.4,1.4,0,0,0-.67.18ZM426,185.8a2,2,0,0,1-.79,2.46l9.67-5.58,0,0a1.93,1.93,0,0,0,.79-2.44l-3.49-8.89-4.7-2.93a2.43,2.43,0,0,0-3.27.76,14.83,14.83,0,0,1-1.56,1.92,3.9,3.9,0,0,0-.92,3.8Z" style="fill:#e6e6e6"></path><path d="M355.8,99.46a1.61,1.61,0,0,1,1.66.15l8.23,5.14A2.42,2.42,0,0,0,369,104a16.65,16.65,0,0,1,1.58-1.92,3.86,3.86,0,0,0,.9-3.8l-.8-2-3.52-2.2a1.61,1.61,0,0,0-1.7-.13h0Zm37.74,55.66c8.69,6.49,17,5.75,20.18-1.14-3.18-.21-6.82-1.66-10.53-4.43-10.08-7.53-16.9-21.94-15.22-32.17a16.3,16.3,0,0,1,1.09-3.78c-5.48-.38-9.65,2.89-10.72,9.35C376.65,133.18,383.45,147.59,393.54,155.12ZM368,84.86a2.28,2.28,0,0,1,.62-.23l6.15-1.42a3.38,3.38,0,0,1,3.5,1.53l5.91,10.68a4.9,4.9,0,0,0,1.32,1.43,6.39,6.39,0,0,0,2.21,1.08,31,31,0,0,1,3.81,1.17,2.12,2.12,0,0,0,2.89-1.32l1.74-5.88a5,5,0,0,1-1-.64h0a4.67,4.67,0,0,1-1.31-1.41l-5.92-10.68a3.38,3.38,0,0,0-3.51-1.53l-6.13,1.43a1.92,1.92,0,0,0-.64.26v0Zm37.61,92.77h0a1.7,1.7,0,0,0,.78-1.05l.27-.87a5.31,5.31,0,0,0-1.2-.47,27.61,27.61,0,0,1-3.81-1.17,2.1,2.1,0,0,0-2.89,1.33l-2,6.74a1.73,1.73,0,0,1-.57.92ZM397.19,90a1.61,1.61,0,0,1,1.83.23l9.3,6.94a4.87,4.87,0,0,1,1.56,2.33,3.72,3.72,0,0,1,.24,1.47l-.44,8.54a6.53,6.53,0,0,0,1.48,4.11c1.52,1.74,3,3.58,4.34,5.46a4.63,4.63,0,0,0,2.06,1.5,3.86,3.86,0,0,0,1.71.31l5.94-.35a3.73,3.73,0,0,1,2.46.84,3.44,3.44,0,0,1,1,1.16l5.71,12.1a2.3,2.3,0,0,1-1.21,3.09l-4.77,2a2.9,2.9,0,0,0-1.61,3.24,48.5,48.5,0,0,1,1.1,5.78,7.32,7.32,0,0,0,2.05,3.92l.1.08,8.16,7.13a4.68,4.68,0,0,1,1.3,2.24,3.84,3.84,0,0,1,.11,1.67l-1.43,8.69a1.64,1.64,0,0,1-.66,1.15l9.6-5.53a1.7,1.7,0,0,0,.7-1.19l1.45-8.69a4.54,4.54,0,0,0-.65-2.9,2.34,2.34,0,0,0-.33-.51.35.35,0,0,0-.05-.08,2.56,2.56,0,0,0-.39-.42l-8.17-7.13-.1-.08a7.06,7.06,0,0,1-2-3.92,55.84,55.84,0,0,0-1.1-5.78,2.81,2.81,0,0,1,.12-1.67l6.54-3.77A2.27,2.27,0,0,0,444,129L438.27,117a3.44,3.44,0,0,0-1-1.17,4.34,4.34,0,0,0-.86-.51,3.68,3.68,0,0,0-.49-.18.06.06,0,0,0,0,0,3.12,3.12,0,0,0-.44-.09,3.88,3.88,0,0,0-.48,0h-.15l-5.92.35a1.91,1.91,0,0,1-.53,0,1.76,1.76,0,0,1-.39-.06,3.63,3.63,0,0,1-.81-.22,4.65,4.65,0,0,1-2.05-1.5A69.27,69.27,0,0,0,420.8,108a6.67,6.67,0,0,1-1.49-4.12l.45-8.55a3.86,3.86,0,0,0-.26-1.44h0c0-.11-.09-.24-.12-.35a5.54,5.54,0,0,0-.82-1.4,1.6,1.6,0,0,0-.25-.27,2.17,2.17,0,0,0-.36-.32l-9.31-7a1.86,1.86,0,0,0-1.14-.41,1.4,1.4,0,0,0-.67.18ZM426,185.8a2,2,0,0,1-.79,2.46l9.67-5.58,0,0a1.93,1.93,0,0,0,.79-2.44l-3.49-8.89-4.7-2.93a2.43,2.43,0,0,0-3.27.76,14.83,14.83,0,0,1-1.56,1.92,3.9,3.9,0,0,0-.92,3.8Z" style="opacity:0.1"></path><path d="M430,152.76l8.16,7.13a4.68,4.68,0,0,1,1.3,2.24l9.62-5.54a5.52,5.52,0,0,0-.5-1.26,2.34,2.34,0,0,0-.33-.51.35.35,0,0,0-.05-.08,2.56,2.56,0,0,0-.39-.42l-8.17-7.13Z" style="fill:#e0e0e0"></path><path d="M417.56,120.55a3.86,3.86,0,0,0,1.71.31l5.94-.35a3.73,3.73,0,0,1,2.46.84l9.64-5.57a4.34,4.34,0,0,0-.86-.51,3.68,3.68,0,0,0-.49-.18.06.06,0,0,0,0,0,3.12,3.12,0,0,0-.44-.09,3.88,3.88,0,0,0-.48,0h-.15l-5.92.35a1.91,1.91,0,0,1-.53,0,2.63,2.63,0,0,1-.39-.06,7.75,7.75,0,0,1-.78-.24l0,0Z" style="fill:#e0e0e0"></path><path d="M355.8,99.45a1.58,1.58,0,0,1,1.66.17l8.23,5.13A2.41,2.41,0,0,0,369,104a14.81,14.81,0,0,1,1.58-1.92,3.84,3.84,0,0,0,.9-3.8l-.79-2-3.53-2.21a1.61,1.61,0,0,0-1.7-.13v0Z" style="fill:#e0e0e0"></path><path d="M368,84.86a2.28,2.28,0,0,1,.62-.23l6.15-1.42a3.38,3.38,0,0,1,3.5,1.53l5.91,10.68a4.9,4.9,0,0,0,1.32,1.43l9.64-5.59a4.67,4.67,0,0,1-1.31-1.41l-5.92-10.68a3.38,3.38,0,0,0-3.51-1.53l-6.13,1.43a1.92,1.92,0,0,0-.64.26v0Z" style="fill:#e0e0e0"></path><path d="M397.19,90a1.61,1.61,0,0,1,1.83.23l9.3,6.94a4.87,4.87,0,0,1,1.56,2.33l9.64-5.55c0-.11-.09-.24-.12-.35a5.54,5.54,0,0,0-.82-1.4,1.6,1.6,0,0,0-.25-.27,2.17,2.17,0,0,0-.36-.32l-9.31-7a1.86,1.86,0,0,0-1.14-.41,1.4,1.4,0,0,0-.67.18Z" style="fill:#e0e0e0"></path><path d="M355,113.26l8.26,7.22a7.24,7.24,0,0,1,2,3.92,53.41,53.41,0,0,0,1.09,5.79,2.86,2.86,0,0,1-1.6,3.23l-4.77,2a2.3,2.3,0,0,0-1.2,3.1l5.71,12.09a3.84,3.84,0,0,0,3.43,2l5.93-.36a4.78,4.78,0,0,1,3.77,1.81c1.37,1.89,2.82,3.72,4.35,5.47a6.59,6.59,0,0,1,1.48,4.11l-.45,8.55a5,5,0,0,0,1.8,3.78l9.31,7a1.55,1.55,0,0,0,2.59-.83l2-6.75a2.11,2.11,0,0,1,2.9-1.32,29.89,29.89,0,0,0,3.8,1.17,6.08,6.08,0,0,1,3.53,2.52l5.91,10.66a3.37,3.37,0,0,0,3.51,1.53l6.13-1.41a2,2,0,0,0,1.5-2.74l-4.3-10.91a3.89,3.89,0,0,1,.92-3.8,15.43,15.43,0,0,0,1.56-1.91,2.41,2.41,0,0,1,3.27-.76l8.23,5.13a1.47,1.47,0,0,0,2.42-1l1.44-8.7a4.77,4.77,0,0,0-1.42-3.9l-8.26-7.21a7.17,7.17,0,0,1-2-3.92,53.48,53.48,0,0,0-1.1-5.79,2.86,2.86,0,0,1,1.61-3.23l4.76-2.05a2.28,2.28,0,0,0,1.21-3.09l-5.72-12.09a3.81,3.81,0,0,0-3.43-2l-5.92.36a4.83,4.83,0,0,1-3.78-1.81,67.75,67.75,0,0,0-4.35-5.47,6.61,6.61,0,0,1-1.48-4.11l.45-8.55a5,5,0,0,0-1.8-3.79L399,90.2a1.55,1.55,0,0,0-2.59.83l-2,6.74a2.11,2.11,0,0,1-2.89,1.33,29.53,29.53,0,0,0-3.81-1.17,6.07,6.07,0,0,1-3.52-2.52l-5.92-10.66a3.37,3.37,0,0,0-3.5-1.54l-6.14,1.42a2,2,0,0,0-1.49,2.74l4.29,10.91a3.87,3.87,0,0,1-.91,3.8A15.5,15.5,0,0,0,369,104a2.41,2.41,0,0,1-3.27.76l-8.23-5.13a1.47,1.47,0,0,0-2.42,1l-1.43,8.69A4.71,4.71,0,0,0,355,113.26Zm23.31,9.68c1.68-10.23,11.23-12.43,21.31-4.9s16.9,21.94,15.21,32.17-11.23,12.44-21.32,4.91S376.65,133.18,378.34,122.94Z" style="fill:#f5f5f5"></path><path d="M365.8,150.21l-.06-.12L360,138a.94.94,0,0,1,0-.75,1,1,0,0,1,.58-.59l4.76-2a4.18,4.18,0,0,0,2.36-4.74,52.7,52.7,0,0,1-1.07-5.65,8.24,8.24,0,0,0-1.11-3,6.88,6.88,0,0,0-1.37-1.7l-8.25-7.22a2.19,2.19,0,0,1-.49-.61,3.38,3.38,0,0,1-.5-2.09l1.43-8.7a.58.58,0,0,1,.1-.28.56.56,0,0,1,.34.12l8.23,5.14a3.7,3.7,0,0,0,5-1.12,15.53,15.53,0,0,1,1.44-1.76,5.18,5.18,0,0,0,1.19-5.18l-4.3-10.91a.76.76,0,0,1,0-.61.84.84,0,0,1,.56-.38l6.14-1.41a2.06,2.06,0,0,1,2.07.89h0L383.06,96l.06.11a7.39,7.39,0,0,0,4.31,3,30.18,30.18,0,0,1,3.64,1.12,3.56,3.56,0,0,0,2.88-.1,3.3,3.3,0,0,0,1.72-2.08l2-6.74c.06-.2.14-.3.18-.31s.19,0,.38.15l9.3,7a3,3,0,0,1,.74.87,3.52,3.52,0,0,1,.54,1.8l-.45,8.55a7.83,7.83,0,0,0,1.13,4.11,6.36,6.36,0,0,0,.67.93c1.49,1.69,2.92,3.49,4.27,5.37a6.13,6.13,0,0,0,4.91,2.35l5.93-.36a2.58,2.58,0,0,1,2.11,1.14l.06.11,5.72,12.1a1,1,0,0,1,0,.75,1,1,0,0,1-.57.58l-4.77,2a4.19,4.19,0,0,0-2.36,4.74,52.7,52.7,0,0,1,1.07,5.65,8.34,8.34,0,0,0,1.12,3,7.09,7.09,0,0,0,1.36,1.7l8.26,7.22a2.61,2.61,0,0,1,.49.61,3.5,3.5,0,0,1,.5,2.09l-1.43,8.69a1,1,0,0,1-.1.29s-.15,0-.35-.13l-8.23-5.13a3.69,3.69,0,0,0-5,1.12,15.6,15.6,0,0,1-1.45,1.76,5.15,5.15,0,0,0-1.18,5.18l4.29,10.91a.7.7,0,0,1,0,.6.82.82,0,0,1-.57.39l-6.13,1.41a2.09,2.09,0,0,1-2.08-.89h0l-5.91-10.66-.06-.11a7.45,7.45,0,0,0-4.31-3,29.64,29.64,0,0,1-3.64-1.12,3.52,3.52,0,0,0-2.88.1,3.35,3.35,0,0,0-1.73,2.07l-2,6.75c-.06.2-.15.3-.19.31a.58.58,0,0,1-.37-.15L385.65,175a2.89,2.89,0,0,1-.74-.88,3.5,3.5,0,0,1-.53-1.79l.45-8.55a7.82,7.82,0,0,0-1.14-4.11,6.28,6.28,0,0,0-.67-.94c-1.48-1.68-2.92-3.49-4.27-5.36a6.07,6.07,0,0,0-4.91-2.35l-5.92.35a2.57,2.57,0,0,1-2.12-1.13m45.1-21.33A40.91,40.91,0,0,0,400.43,117c-5.84-4.37-11.85-5.81-16.48-3.94-3.66,1.48-6.12,4.91-6.9,9.67-1,6.32.87,14.17,5.25,21.55a40.73,40.73,0,0,0,10.46,11.88c5.85,4.37,11.86,5.8,16.48,3.94,3.67-1.48,6.12-4.91,6.91-9.67,1-6.32-.88-14.17-5.25-21.55m-46.22,22a3.88,3.88,0,0,0,3.31,1.78l5.93-.36a4.78,4.78,0,0,1,3.77,1.81c1.37,1.89,2.82,3.72,4.35,5.46a4.76,4.76,0,0,1,.53.75,6.52,6.52,0,0,1,.95,3.37l-.45,8.55a4.79,4.79,0,0,0,.72,2.53,4.29,4.29,0,0,0,1.08,1.25l9.31,7a1.55,1.55,0,0,0,2.59-.83l2-6.75a2.11,2.11,0,0,1,2.9-1.32,29.89,29.89,0,0,0,3.8,1.17,6.13,6.13,0,0,1,3.48,2.44l.05.08,5.91,10.66,0,.06a3.36,3.36,0,0,0,3.47,1.47l6.13-1.41a2,2,0,0,0,1.5-2.74l-4.3-10.91a3.89,3.89,0,0,1,.92-3.8,15.43,15.43,0,0,0,1.56-1.91,2.41,2.41,0,0,1,3.27-.76l8.23,5.13a1.47,1.47,0,0,0,2.42-1.06l1.44-8.69a4.71,4.71,0,0,0-.67-3,3.87,3.87,0,0,0-.75-.93l-8.26-7.21a5.63,5.63,0,0,1-1.1-1.39,7,7,0,0,1-.94-2.53,53.48,53.48,0,0,0-1.1-5.79,2.86,2.86,0,0,1,1.61-3.23l4.76-2.05a2.28,2.28,0,0,0,1.21-3.09l-5.72-12.09a.94.94,0,0,0-.12-.22,3.87,3.87,0,0,0-3.31-1.78l-5.92.36a4.83,4.83,0,0,1-3.78-1.81,67.75,67.75,0,0,0-4.35-5.47,5.65,5.65,0,0,1-.53-.74,6.71,6.71,0,0,1-.95-3.37l.45-8.55a4.77,4.77,0,0,0-.71-2.53,4.21,4.21,0,0,0-1.09-1.26L399,90.2a1.55,1.55,0,0,0-2.59.83l-2,6.74a2.11,2.11,0,0,1-2.89,1.33,29.53,29.53,0,0,0-3.81-1.17,6.13,6.13,0,0,1-3.48-2.44.59.59,0,0,0,0-.08l-5.92-10.66,0-.07a3.4,3.4,0,0,0-3.47-1.47l-6.14,1.42a2,2,0,0,0-1.49,2.74l4.29,10.91a3.87,3.87,0,0,1-.91,3.8A15.5,15.5,0,0,0,369,104a2.41,2.41,0,0,1-3.27.76l-8.23-5.13a1.47,1.47,0,0,0-2.42,1l-1.43,8.69a4.74,4.74,0,0,0,.66,3,3.72,3.72,0,0,0,.76.93l8.26,7.22a6.3,6.3,0,0,1,1.1,1.38,7.19,7.19,0,0,1,.94,2.54,53.41,53.41,0,0,0,1.09,5.79,2.86,2.86,0,0,1-1.6,3.23l-4.77,2a2.3,2.3,0,0,0-1.2,3.1l5.71,12.09.12.22Zm45.09-21.33c4,6.79,6.11,14.49,5.09,20.67-1.69,10.24-11.23,12.44-21.32,4.91a39.91,39.91,0,0,1-10.12-11.5c-4-6.79-6.1-14.49-5.08-20.68,1.68-10.23,11.23-12.43,21.31-4.9a39.64,39.64,0,0,1,10.12,11.5Z" style="fill:#ebebeb"></path></g></g><g id="freepik--Shadows--inject-34"><path id="freepik--Shadow--inject-34" d="M213.63,395.23a15.74,15.74,0,0,0,4.32,5.82,58.51,58.51,0,0,0,23,12.15c8.34,2.23,16.88,1.61,24.39,6.53,4.84,3.16,9.19,7,13.94,10.26,8.2,5.66,16.75,10.89,26.28,14,5.23,1.7,8.88,1.78,14.35,1.6a46,46,0,0,1,10.56.37c7.77,1.54,14,6.85,20.09,11.54,6.53,5,12.82,8.63,20.89,10.58,6.25,1.51,28.9,3.06,26.86-8.55-.51-2.88-3-4.95-5.28-6.75-5.8-2.9-11.3-8.83-16.43-12.84-4.91-3.83-7.65-8.63-11.31-13.69-3-4.16-6-8.35-9.85-11.76-7.91-6.93-18.77-11.56-27.89-16.88q-15.45-9-31-17.78c-6.66-3.75-13.42-7.47-20.67-10-6.15-2.12-14.76-4.24-21.26-2.83-2.75.59-5.06,2.39-7.56,3.67-6,3.07-13,3.16-19.55,4.58-5.26,1.14-10.77,4.61-13.32,9.45A12,12,0,0,0,213.63,395.23Z" style="fill:#e0e0e0"></path><polygon id="freepik--shadow--inject-34" points="45.27 333.02 215.99 234.45 311.35 289.51 140.63 388.07 45.27 333.02" style="fill:#e0e0e0"></polygon></g><g id="freepik--Character--inject-34"><g id="freepik--character--inject-34"><g id="freepik--Bottom--inject-34"><path d="M376.52,436.75s-8.87-6-2.12-14.81c1-1.24,24.08-25.06,24.08-25.06l-24.83-14.34L354,415.46l-1.22,2s-7.4,16.67,3.69,18.9C362.14,437.52,376.52,436.75,376.52,436.75Z" style="fill:#ffbda7"></path><path d="M344.44,432.59a5.17,5.17,0,0,0,.23,3c.46,1.28,6.75,6.21,8.36,8.31s1.82,3,3.67,5.84c2,3.2,3.15,7.13,12.14,10.28s15.16,2.1,19.21.36a9.94,9.94,0,0,0,3.64-3s1.45-5.14-1.38-6.28S344.44,432.59,344.44,432.59Z" style="fill:#263238"></path><path d="M369.16,424.2a11.48,11.48,0,0,1,3.41.91c.62.28,1.17.67,1.22,1.38s-.22,1.46-.12,2.2a5.85,5.85,0,0,0,.95,2.17A60.21,60.21,0,0,0,386.28,444c2.93,2.59,5.84,5.45,6,9.61.12,2.65-3.28,6.15-14.79,6.44-5.87.14-14.76-3.87-17.39-7.58s-3.74-6.92-5.86-9.63-8.61-7.06-9.81-10.23a17.1,17.1,0,0,1,1.39-7.1c.81-2.35,3.87-5.86,4.47-7.36a4.22,4.22,0,0,1,3.69-2.67l-1.2,2.11c-3,6.15,3.3,13.26,3.76,13.1s.6-2.35.76-2.89a4.06,4.06,0,0,1,2.91-2.79,20.22,20.22,0,0,1,7-.9A15.61,15.61,0,0,1,369.16,424.2Z" style="fill:#455a64"></path><path d="M377.58,460c-5.87.14-14.76-3.87-17.39-7.58a38.53,38.53,0,0,1-2.37-3.82c.2.22.38.47.56.65.4.4.8.79,1.22,1.17a13,13,0,0,0,5.68,3.32c1.93.41,6.66,1.58,8.18-.31.87-1.07.48-2.8-.44-4.13-.39-.57-1.57-1.9-1.57-1.9a21.23,21.23,0,0,1,5.81-3.53c4-1.44,4.3-1,4.3-1a9.39,9.39,0,0,0,2.41,1.93,7.34,7.34,0,0,0,2.87.85,4.41,4.41,0,0,0,1.07-.16c2.58,2.09,4.58,4.14,4.46,8.1C392.17,456.22,389.09,459.73,377.58,460Z" style="fill:#37474f"></path><path d="M378.9,438.88a7.58,7.58,0,0,1,1.75,3.17,6.94,6.94,0,0,0,.18,1.46c.61,1.45,2.46.55,2.8-.64a3.39,3.39,0,0,0,.1-1.23,54.28,54.28,0,0,1-9.12-10.78,9,9,0,0,1-.7-1.34l0,0a13.5,13.5,0,0,0,.84,3.13A32.76,32.76,0,0,0,378.9,438.88Z" style="fill:#37474f"></path><path d="M351,426.59a10.37,10.37,0,0,1-1.2-5.65,19.65,19.65,0,0,1,.69-3.41c.79-1.69,2.16-1.95,3.51-2.07l-1.2,2.11c-.64,1.33-.58,4.83.13,6.78a16.47,16.47,0,0,0,3.36,5.91c4.15,4.9,5,7.21,9.36,11.29s8.23,5.48,8,6.35-1.77,1.82-5.76-.75-9.13-9-11.28-12.41S352.8,430.26,351,426.59Z" style="fill:#37474f"></path><path d="M371.19,447.48a.57.57,0,0,0,.33-.11c3.42-2.49,5.67-3.43,10.44-3.26a.62.62,0,0,0,.61-.57.59.59,0,0,0-.57-.61c-5-.17-7.54.83-11.18,3.49a.59.59,0,0,0,.37,1.06Z" style="fill:#263238"></path><path d="M368.08,444a.65.65,0,0,0,.34-.11c3.73-2.45,6.44-3.2,11.56-3a.63.63,0,0,0,.66-.57.61.61,0,0,0-.59-.64c-5.39-.31-8.37.58-12.34,3.19a.6.6,0,0,0-.16.84A.64.64,0,0,0,368.08,444Z" style="fill:#263238"></path><path d="M365,440.6a.68.68,0,0,0,.36-.1c4.05-2.41,7.21-3.07,12.68-2.7a.62.62,0,1,0,.1-1.23c-5.75-.44-9.2.33-13.49,2.89a.59.59,0,0,0-.2.85A.64.64,0,0,0,365,440.6Z" style="fill:#263238"></path><path d="M361.84,437.16a.89.89,0,0,0,.39-.09c4.36-2.37,8-2.94,13.78-2.42a.68.68,0,0,0,.77-.56.66.66,0,0,0-.63-.7c-6.11-.58-10,.07-14.65,2.58a.61.61,0,0,0-.24.88A.74.74,0,0,0,361.84,437.16Z" style="fill:#263238"></path><path d="M358.73,433.72a.83.83,0,0,0,.4-.09c4.68-2.32,8.75-2.81,14.9-2.13a.71.71,0,0,0,.82-.56.68.68,0,0,0-.65-.73c-6.47-.71-10.85-.18-15.81,2.28a.61.61,0,0,0-.27.89A.77.77,0,0,0,358.73,433.72Z" style="fill:#263238"></path><path d="M357.64,406.46c1.67,3.37,11.49,12.12,22.89,11.57,0,0,19.12-19.18,29.62-30.25,10.18-10.72,12.78-17.6,12-23s-3.63-11.44-15.88-20.47C391.85,333.67,374,321.15,374,321.15h-45.7s-5.72,16,1,26.92,14.2,13.13,26.53,18c14,5.55,21.19,8.44,21.19,8.44s-2.13,2.11-7.31,11C365.57,392.54,357.64,406.46,357.64,406.46Z" style="fill:#37474f"></path><path d="M376.68,345.08c-.53,8.24-6.38,16.88-13.51,19.68l13.77,9.77L349.4,363.59V342.34Z" style="fill:#263238"></path><path d="M376.94,374.53,387,378.31l-13.31.64A35.22,35.22,0,0,1,376.94,374.53Z" style="fill:#263238"></path><path d="M246.82,353.66c-2.84-1.32-5.44-.56-8.26,1.43s-4.8,5.78-3.82,11,2,7.92.29,12.44-4.32,11.66-1,18.39,8.92,8.54,12.4,9.44,8.22-.33,9.92-2.28Z" style="fill:#263238"></path><path d="M259.74,359c-2.13-2.38-6.5-4.11-9.51-4.94s-7.49-.79-10.55,2.54c-3.65,4-3.7,8.06-2.79,13s.1,8.22-1.73,13.52-1.37,14.06,5.57,18.72,12.6,3.84,15.62,2.19,3.44-3.82,2.77-6.3-2.77-5.57-3.23-9.13a12.76,12.76,0,0,1,.13-5.26c.57-1.53,2.49-2.18,2.85-3.88a1,1,0,0,0,0-.43c-.1-.49-.66-.7-1.12-.91-1.48-.65-.43-3.69-.27-5l.75-5.93C258.54,364.94,259.46,361.29,259.74,359Z" style="fill:#455a64"></path><path d="M257.36,393.41a3.22,3.22,0,0,1-1.6-1.09,7.9,7.9,0,0,1-1.25-3.25,56.5,56.5,0,0,0-7.91.64c-.18,1.07.12,1.64.22,3.18a2.43,2.43,0,0,1-1.58,2.35,4.63,4.63,0,0,1-2.68.29,8.93,8.93,0,0,1-6.23-4.57,13.84,13.84,0,0,1-1.64-6.13c-1.19,5.32-.2,12.82,6,17,6.94,4.66,12.6,3.84,15.62,2.19s3.44-3.82,2.77-6.3A38.32,38.32,0,0,0,257.36,393.41Z" style="fill:#37474f"></path><path d="M248.28,376a20.47,20.47,0,0,0-1.41,8.8c.25,4.12,1.44,5.9-.15,6.52s-1.87-1-2.12-5.59a22.39,22.39,0,0,1,2-10.58,27.84,27.84,0,0,0,1.82-8.23,11.48,11.48,0,0,1,4.93-8.36,5.5,5.5,0,0,1,5.75-.26s2.39,1.13.92,2.7c-.78-1.34-3-2.48-6-.5a9.76,9.76,0,0,0-4.1,7.88C249.91,370.81,249.29,372.89,248.28,376Z" style="fill:#37474f"></path><path d="M246.3,390.51a.63.63,0,0,1-.16-1.24c3-.81,9.81-1.19,10.75.27a.63.63,0,0,1-.2.87.64.64,0,0,1-.87-.19c-.57-.5-5.85-.69-9.35.26A.51.51,0,0,1,246.3,390.51Z" style="fill:#263238"></path><path d="M256,386.74a.62.62,0,0,1-.53-.29c-.58-.49-5.86-.71-9.36.24a.63.63,0,0,1-.77-.44.64.64,0,0,1,.44-.78c3-.8,9.82-1.16,10.75.31a.63.63,0,0,1-.19.87A.72.72,0,0,1,256,386.74Z" style="fill:#263238"></path><path d="M256.57,383.38A.63.63,0,0,1,256,383c-.51-.56-5.72-1.43-9.31-.94a.63.63,0,1,1-.17-1.24c3-.42,9.88.08,10.62,1.65a.64.64,0,0,1-.3.84A.65.65,0,0,1,256.57,383.38Z" style="fill:#263238"></path><path d="M248.63,374.91c-1,1.7-.92,3.55.6,2.55s4.74.38,8.78,2,14.19,6.31,14.19,6.31l12.44-20.88c-10.64-2.86-13.13-2.05-25-5.25-5.32-1.44-8.75,2.94-9.44,7.09S249.51,373.39,248.63,374.91Z" style="fill:#ffbda7"></path><path d="M315.77,317.42c-2.47,7.55-3.08,15.6-4.93,24.92-1.67,8.45-5.33,25.54-5.33,25.54-7.65-2.81-18.06-5.56-36-8.16,0,0-10,5.64-8.09,23,0,0,27.55,16.46,43.07,23.5,16,7.25,24.41,5.16,31.36-5,6.43-9.41,18.84-37.89,18.84-37.89,11.38-.73,31.26-21.89,27.45-42.17Z" style="fill:#37474f"></path><path d="M305.51,367.88c-1.41,9.91-1.06,16.65,0,22.57-6-6.91-3.46-23.77-3.46-23.77C303.31,367.1,304.48,367.5,305.51,367.88Z" style="fill:#263238"></path></g><g id="freepik--Top--inject-34"><g id="freepik--Arm--inject-34"><path d="M451.48,291.06c-.35-3.51-4-7.36-8-11.11s-24.65-20.22-28.65-23.07-7.55-4.93-18-5.25l4.56,26.17,25.48,17.05Z" style="fill:#f0997a"></path><path d="M421.43,291.63c.72-10.07,10.5-18.39,16.75-16.55-5.11-4.43-7.73-6.78-11.94-10.12-11-8.75-15.5-15-32.34-13.49l6.1,28.16Z" style="fill:#37474f"></path></g><g id="freepik--Chest--inject-34"><path d="M376.13,209.82a21.56,21.56,0,0,0-3.65-1.68,14.61,14.61,0,0,0-10.57.44,16.26,16.26,0,0,0-9.16,13.56c-.15,2.2.13,4.44-.4,6.58-.87,3.6-3.8,6.26-6.26,9s-4.68,6.41-3.71,10a20,20,0,0,1,5.72-5.05c-3.16,6.35-1.32,12.6,1.51,18.58,1.18,2.49,1.95,3.76,4.52,5.2a42.2,42.2,0,0,0,9.27,3.46,15.5,15.5,0,0,1-1-15.5c1.29-2.54,3.27-4.67,4.71-7.13a19.48,19.48,0,0,0,2.66-9.53c0-2.41-.39-4.81-.43-7.22a11.24,11.24,0,0,1,1.75-6.89c1.5-2,3.95-3.18,5.61-5.11a9.19,9.19,0,0,0,2.19-5.21C378.91,211.44,377.71,210.73,376.13,209.82Z" style="fill:#37474f"></path><path d="M342.93,265.21c1.43-1.72,5-5,7.24-6,5.73-2.52,18.47-6.83,18.47-6.83,4.67-1.38,9.63-1.08,14.45-1,4.5.09,8.73-.9,13.22.11a12.2,12.2,0,0,1,6.79,3.81,16.48,16.48,0,0,1,2.22,3.87,36.29,36.29,0,0,1,2.87,22.13c-1.56,7.92-6.79,15.32-11.25,21.44-5.37,7.35-6.53,9.41-9.95,17.85a19.71,19.71,0,0,0-1.07,8.19c-7.39,5.52-17.08,11.88-37.51,12.2-12.78.21-26.55-4.25-35.54-13.78a122.93,122.93,0,0,1,10.4-31.95A147,147,0,0,1,342.93,265.21Z" style="fill:#455a64"></path><g id="freepik--Head--inject-34"><path id="freepik--Hair--inject-34" d="M376.5,256.73a22.16,22.16,0,0,1,2.95-2.19l17-12.64,9.37-7c1.45-1.08,3-2.79,4.92-2.54a3,3,0,0,0,2.17-.34,13,13,0,0,0,2.52-1.59,6.23,6.23,0,0,0,2.64-4.58,16.73,16.73,0,0,0-1-6,20.53,20.53,0,0,0-6.58-9.66A25.46,25.46,0,0,0,399,205.26c-.95-.18-1.91-.33-2.87-.43-4.31-.44-8.38.51-12.49,1.8a22.36,22.36,0,0,0-13.44,11.74,27,27,0,0,0-2.57,14.92C369.39,246.89,376.23,247.82,376.5,256.73Z" style="fill:#37474f"></path><g id="freepik--head--inject-34"><path d="M415,241.37c-1.42,15.44-6.63,18.21-9.22,19.13s-5.72.72-10.38-.38l-5.37,4.53c2.68,10.56-12.71,8.51-20.25-12l7.07-7.43s-2.12,2.41-6-.28c-3.68-2.59-3.68-9-1.42-11.57,2.07-2.34,6.27-1.68,7.43,1.08a6.28,6.28,0,0,1,.49,2.91c.05,1.39,0,1.93,1.65,1.71a4.87,4.87,0,0,0,2.82-1.53,8.14,8.14,0,0,0,1.86-4.44c5.62,0,11,.05,16-3a19.61,19.61,0,0,0,8.48-11.63c.1-.37.32-.85.71-.78a.72.72,0,0,1,.37.25,18.84,18.84,0,0,1,4.3,6.1,21.48,21.48,0,0,1,1.14,5.47A50.24,50.24,0,0,1,415,241.37Z" style="fill:#ffbda7"></path><path d="M398.68,233.42l-5.25-.87a2.79,2.79,0,0,1,3.15-2.24A2.58,2.58,0,0,1,398.68,233.42Z" style="fill:#263238"></path><path d="M412.52,230.63l-4.69,2.6a2.58,2.58,0,0,1,.94-3.61A2.82,2.82,0,0,1,412.52,230.63Z" style="fill:#263238"></path><path d="M398.46,237.86a1.95,1.95,0,1,1-1.92-2A1.94,1.94,0,0,1,398.46,237.86Z" style="fill:#263238"></path><path d="M412.12,237.45a1.95,1.95,0,1,1-1.92-2A1.94,1.94,0,0,1,412.12,237.45Z" style="fill:#263238"></path><polygon points="402.86 233.98 405.16 247.38 411.62 244.5 402.86 233.98" style="fill:#f0997a"></polygon><path d="M403.25,250.88a.46.46,0,0,0-.41-.35,8.35,8.35,0,0,1-2.76-.44,5.38,5.38,0,0,1-2-1.41s-.08.06-.07.09a3.14,3.14,0,0,0,1.82,1.92,7.7,7.7,0,0,0,3.18.61C403.25,251.3,403.29,251,403.25,250.88Z" style="fill:#b16668"></path><path d="M395.44,260.12c-4-1.25-8.26-3-11.13-5.44a14,14,0,0,1-4.1-6.37s.06,6,2.94,8.82,10,4.92,10,4.92Z" style="fill:#f0997a"></path><path d="M415,241.37c-.57,12.46-4.9,23.85-19.6,18.75,14.86,3.78,17.77-6.5,19.6-18.75Z" style="fill:#f0997a"></path></g></g><path d="M386.72,270.9a13.92,13.92,0,0,1-1.55-3.81c-.22-1.55-5.55-5.41-8.57-9.49a16.76,16.76,0,0,1-3-8.93l-4.52,3.5a25.89,25.89,0,0,0,4.75,11.17C377,267.4,382.53,271.28,386.72,270.9Z" style="fill:#37474f"></path><path d="M386.72,270.9c2.1-2,2.34-6.11,3.37-6.68a36.88,36.88,0,0,0,3.08-2.17S392.46,271.29,386.72,270.9Z" style="fill:#37474f"></path></g><g id="freepik--arm--inject-34"><path d="M409.2,316.38a6.64,6.64,0,0,1-1.59.39c-.19-.27-.42-.57-.67-.9-4.67-6.19-17.23-22.7-24.39-31.41-2.14-2.61-4.33-5.41-6.44-8.14-1.72-2.21-3.44-4.42-5.2-6.6s-3.77-4.61-5.77-6.81q-1.42-1.59-2.94-3.1c-.49-.49-1-1-1.48-1.44l-.78-.71s-.51-.57-.34-.56c2.77.31,4.46,2.4,6.23,4.33,4.08,4.44,7.77,9.22,11.46,14,2.12,2.71,4.29,5.49,6.42,8.09,7.32,8.92,20.28,26,24.71,31.84Z" style="fill:#263238"></path><path d="M451.48,291.06a7.31,7.31,0,0,0-3.84-4.4,29.33,29.33,0,0,0-6.32-2.46,25.13,25.13,0,0,0-8-.93c-9.55.35-13.9,2.9-24.82.6h0c-5.27-1.17-9.84-3.08-15.71-4.26a12.78,12.78,0,0,0-3.89-.35,5.48,5.48,0,0,0-3.36,1.82c-1,1.1-2,2.2-2.94,3.38a9.58,9.58,0,0,0-1.47,2.32,3.79,3.79,0,0,0-.16,2.69,2.74,2.74,0,0,0,.42.77c.15.2.44.38.53.62a1.75,1.75,0,0,1,0,.72,4.51,4.51,0,0,0,1.55,3.57.9.9,0,0,1,.33.4c.12.38,0,.81.14,1.21a3.3,3.3,0,0,0,2.62,2.46,4.9,4.9,0,0,0,.26,1.17,3,3,0,0,0,.95,1.11,5.29,5.29,0,0,0,.82.42,20,20,0,0,0,6.81,1.26,3.65,3.65,0,0,0,2.1-.24,1.4,1.4,0,0,0,.68-1.76,10.54,10.54,0,0,0,2.36.63c2,.15,3.16-.52,4.76-1.35,1.76-.91,2.25-1.63,4.37-1.38h0c3.7.68,8,1.37,11.58,2.05,6.44,1.24,11.07,2,16.1,1.55,4.51-.37,10.84-3.41,13.53-8.21A4.63,4.63,0,0,0,451.48,291.06Z" style="fill:#ffbda7"></path><path d="M398,301c-.16-.17-.3-.38-.45-.53a4.62,4.62,0,0,0-.81-.65,7.73,7.73,0,0,0-1.91-.83c-.18-.06-.42-.16-.65-.22a4.86,4.86,0,0,0,1.67-2.66.43.43,0,0,0-.15-.41c-.09-.06-.28-.1-.32,0a4.65,4.65,0,0,1-1.47,2.49,9,9,0,0,1-2.87,1.58c-.14.05-.07.33.08.32a6.29,6.29,0,0,0,2.46-.92s1,.28,1.11.33c.39.16.82.25,1.22.41a11.78,11.78,0,0,1,2.3,1.22A.91.91,0,0,1,398,301Z" style="fill:#f0997a"></path><path d="M381.94,290.81a20,20,0,0,1,1.24-1.95,31.43,31.43,0,0,1,3-3.53c.1-.11,0-.46-.17-.34a18.76,18.76,0,0,0-3.28,3.44c-.46.61-.87,1.25-1.28,1.9.16.17.38.33.45.53,0,0,0,0,0,.05A.93.93,0,0,0,381.94,290.81Z" style="fill:#f0997a"></path><path d="M387.61,296.75a30.56,30.56,0,0,1,2.33-4c.09-.13-.1-.45-.23-.3a18.72,18.72,0,0,0-2.64,3.94c-.36.7-.67,1.41-1,2.14-.07.16-.12.33-.19.49a2.94,2.94,0,0,0,.64.19s0,.07,0,.17l.15-.51A20.89,20.89,0,0,1,387.61,296.75Z" style="fill:#f0997a"></path><path d="M383.8,295.55a.25.25,0,0,1,0,.08l.44-.85a20,20,0,0,1,1.24-1.95,31.43,31.43,0,0,1,3-3.53c.1-.11,0-.46-.17-.34A18.76,18.76,0,0,0,385,292.4c-.47.62-.9,1.28-1.31,1.94l-.38.65c.05.05.09.12.14.16A.9.9,0,0,1,383.8,295.55Z" style="fill:#f0997a"></path><path d="M409.2,316.38a6.64,6.64,0,0,1-1.59.39c-.19-.27-.42-.57-.67-.9-2.56-3.39-7.47-9.86-12.57-16.45l-.78-1a1.09,1.09,0,0,0,.3-.23,4.16,4.16,0,0,0,.75-.87c.12.17.26.33.38.5l1.37,1.78c.23.3.45.58.66.87h0c4.73,6.16,9.12,11.92,11.35,14.87Z" style="fill:#263238"></path></g><g id="freepik--arm--inject-34"><path d="M419.13,314.82a.69.69,0,0,1-.09-.3.68.68,0,0,1,.13-.33,3,3,0,0,0-.37-3.35c-.21-.23-.45-.43-.64-.67-.67-.88-.24-2-.91-3a4.75,4.75,0,0,0-1.34-1.14c-2.33-1.51-4.88-3.13-7.72-3.31s-5.15,1.81-7.14,3.5-3.68,3.38-5.54,5c-3,2.35-3.45,2.72-15,1.75-7.89-.66-19.12-3.86-19.12-3.86l-2.31-18.41s-.4-25.33-9.48-30.57c-7.91,2.9-15.2,9.53-13.86,24.8,1.4,15.87,2.18,22.14,4.08,31.76s3.08,11.61,15.93,12.59c12.07.92,31.94.16,34-.05a114.29,114.29,0,0,0,11.61-1.33,10.71,10.71,0,0,0,6.52-3.74,1.93,1.93,0,0,0,1.45,1.73,4.79,4.79,0,0,0,2.48-.62l2.58-1.18a8.32,8.32,0,0,0,2.86-1.8,3.39,3.39,0,0,0,.87-1.8c.09-.73-.22-.87-.47-1.46a2.11,2.11,0,0,0,1.91-1.61A4,4,0,0,0,419.13,314.82Z" style="fill:#ffbda7"></path><path d="M419.09,314.17a23.48,23.48,0,0,0-2.25-1.11,13.9,13.9,0,0,0-4.62-1.32c-.12,0-.08.23,0,.26,1.49.59,3,1.06,4.49,1.72.71.32,1.41.68,2.09,1.07l.42.26-.09-.23a.69.69,0,0,1-.09-.3.63.63,0,0,1,.12-.31Z" style="fill:#f0997a"></path><path d="M416,309c.7.32,1.39.67,2.07,1a2.41,2.41,0,0,1-.32-.92c-.5-.24-1-.5-1.5-.71a26.11,26.11,0,0,0-5.39-1.61c-.23,0-.14.4,0,.45A36.53,36.53,0,0,1,416,309Z" style="fill:#f0997a"></path><path d="M417.61,319.07a1.94,1.94,0,0,0,.78-.22l-.31-.2a13.82,13.82,0,0,0-1.59-.9,15,15,0,0,0-1.55-.66,3.36,3.36,0,0,0-1.58-.34c-.13,0-.09.27,0,.32a10,10,0,0,0,1.75.74,13.9,13.9,0,0,1,1.61.76c.31.16.61.36.9.54C417.62,319.1,417.61,319.09,417.61,319.07Z" style="fill:#f0997a"></path><path d="M411.8,321.51a4.12,4.12,0,0,1-.91-.2c-.57-.18-1.1-.47-1.66-.7-.07,0-.11.08-.12.13a.26.26,0,0,0,.09.22,7.72,7.72,0,0,0,.91.57,25.48,25.48,0,0,0-2.25,2.73,2.13,2.13,0,0,0,.24.71,17.4,17.4,0,0,1,.89-1.5,20.38,20.38,0,0,1,1.38-1.83,5,5,0,0,0,.63.28,4.9,4.9,0,0,0,.94.19,2.67,2.67,0,0,0,.49,0c.13,0,.33-.05.4-.18a.26.26,0,0,0-.07-.35A3.07,3.07,0,0,0,411.8,321.51Z" style="fill:#f0997a"></path><path d="M350.17,259.19c-11.27,2.64-14.61,11.87-14.89,20-.26,7.49,1.68,25.19,2.26,28.64a33.83,33.83,0,0,0,13.54,0c7.29-1.54,10.28-6.26,10.28-6.26s-2.24-18.24-3.28-24.28S354.65,261.05,350.17,259.19Z" style="fill:#37474f"></path><path d="M412.48,338.19a1.78,1.78,0,0,1-.14.75.8.8,0,0,1-1.56-.07,2.57,2.57,0,0,1-.06-1c.15-2.74.19-5.49.1-8.23a32.35,32.35,0,0,0-.32-4.06,17.92,17.92,0,0,0-.44-2c0-.08-.5-1.46-.63-1.32a12.32,12.32,0,0,0,1-1.12c.12.16.11.11.23.27,1.66,2.29,1.53,5.44,1.6,8.13s.15,5.5.23,8.25C412.48,337.93,412.49,338.06,412.48,338.19Z" style="fill:#263238"></path></g></g></g><g id="freepik--Block--inject-34"><polygon points="65.28 195.35 140.63 238.86 291.35 151.85 215.99 108.34 65.28 195.35" style="fill:#BA68C8"></polygon><polygon points="65.28 195.35 140.63 238.86 291.35 151.85 215.99 108.34 65.28 195.35" style="fill:#fff;opacity:0.5"></polygon><polygon points="65.28 195.35 140.63 238.86 140.63 375.63 65.28 332.12 65.28 195.35" style="fill:#BA68C8"></polygon><polygon points="291.35 151.85 291.35 288.61 140.63 375.63 140.63 238.86 291.35 151.85" style="fill:#BA68C8"></polygon><polygon points="291.35 151.85 291.35 288.61 140.63 375.63 140.63 238.86 291.35 151.85" style="fill:#fff;opacity:0.30000000000000004"></polygon><path d="M140.61,311.82l-.37-.25L64.75,264.71a.69.69,0,0,1-.19-1,.7.7,0,0,1,1-.19l75.13,46.62L293.39,224.4a.7.7,0,0,1,.7,1.22Z" style="fill:#263238"></path><path d="M140.66,303.5l-.27-.1L64.9,275.25a.69.69,0,0,1-.42-.89.7.7,0,0,1,.9-.42L140.6,302l152.85-70.26a.69.69,0,0,1,.92.35.68.68,0,0,1-.34.92Z" style="fill:#263238"></path><path d="M218.35,334h0a.7.7,0,0,1-.69-.71L220.14,193l-83.57-39.33a.7.7,0,0,1-.34-.93.72.72,0,0,1,.94-.34l84.39,39.72v.45l-2.5,140.71A.71.71,0,0,1,218.35,334Z" style="fill:#263238"></path><path d="M224.8,329.46a.71.71,0,0,1-.7-.65l-9.42-133-72.75-45.47a.7.7,0,0,1,.74-1.18L216,195l0,.35,9.45,133.41a.7.7,0,0,1-.65.75Z" style="fill:#263238"></path><path d="M220.42,267.67a.69.69,0,0,1-.69-.62.7.7,0,0,1,.62-.77c.68-.07,67.51-6.78,95.71-9.15,6.16-.52,11.51-1.1,16.22-1.62,17.16-1.89,25.77-2.84,32,4.43a.7.7,0,0,1-.08,1,.69.69,0,0,1-1-.08c-5.76-6.7-13.6-5.84-30.79-4-4.73.52-10.08,1.11-16.26,1.62-28.19,2.37-95,9.08-95.69,9.15Z" style="fill:#263238"></path></g></g><g id="freepik--speech-bubble--inject-34"><g id="freepik--speech-bubble--inject-34"><g id="freepik--speech-bubble--inject-34"><path d="M137.91,142.51c-.65-.39-6.38-3.69-7.49-4.32a2.33,2.33,0,0,1-.82-.83l-2.33-4,3.78-2.18,6.11,10.59A2.34,2.34,0,0,0,137.91,142.51Z" style="fill:#BA68C8"></path><g style="opacity:0.2"><path d="M137.91,142.51c-.65-.39-6.38-3.69-7.49-4.32a2.33,2.33,0,0,1-.82-.83l-2.33-4,3.78-2.18,6.11,10.59A2.34,2.34,0,0,0,137.91,142.51Z"></path></g><path d="M201.26,31.76c-.14-.89-.86-1.21-1.75-.7L67.37,107.46a3.65,3.65,0,0,0-1.25,1.33l-9.9-5.65a3.54,3.54,0,0,1,1.23-1.26l132.14-76.4a4,4,0,0,1,3.56,0L199.5,29A3.87,3.87,0,0,1,201.26,31.76Z" style="fill:#BA68C8"></path><path d="M201.26,31.76c-.14-.89-.86-1.21-1.75-.7L67.37,107.46a3.65,3.65,0,0,0-1.25,1.33l-9.9-5.65a3.54,3.54,0,0,1,1.23-1.26l132.14-76.4a4,4,0,0,1,3.56,0L199.5,29A3.87,3.87,0,0,1,201.26,31.76Z" style="fill:#fff;opacity:0.45"></path><path d="M67.37,167.94a4,4,0,0,1-3.56,0l-6.36-3.66a3.86,3.86,0,0,1-1.78-3.05V105a3.74,3.74,0,0,1,.56-1.82l9.89,5.65a3.5,3.5,0,0,0-.52,1.74v56.38C65.6,168,66.33,168.55,67.37,167.94Z" style="fill:#BA68C8"></path><path d="M67.37,167.94a4,4,0,0,1-3.56,0l-6.36-3.66a3.86,3.86,0,0,1-1.78-3.05V105a3.74,3.74,0,0,1,.56-1.82l9.89,5.65a3.5,3.5,0,0,0-.52,1.74v56.38C65.6,168,66.33,168.55,67.37,167.94Z" style="opacity:0.2"></path><path d="M199.51,31.06,67.37,107.46a3.92,3.92,0,0,0-1.77,3.07v56.38c0,1.14.79,1.6,1.77,1l63.68-36.8,6.11,10.58a2.24,2.24,0,0,0,4.06-.38l7-20.09,51.33-29.71a3.93,3.93,0,0,0,1.78-3.07V32.09C201.29,31,200.49,30.5,199.51,31.06Z" style="fill:#fafafa"></path><path d="M200.18,32s0,.08,0,.14V88.47A2.85,2.85,0,0,1,199,90.59L147.63,120.3l-.36.2-.13.39-7,20.09a1.12,1.12,0,0,1-1.08.76,1.11,1.11,0,0,1-1-.57L132,130.59l-.55-1-.95.55L66.82,167l-.12.06V110.53a2.84,2.84,0,0,1,1.22-2.12L200.06,32l.12-.06m.13-1.13a1.69,1.69,0,0,0-.8.24L67.37,107.46a3.92,3.92,0,0,0-1.77,3.07v56.38c0,.81.4,1.27,1,1.27a1.62,1.62,0,0,0,.79-.24l63.68-36.8,6.11,10.58a2.24,2.24,0,0,0,4.06-.38l7-20.09,51.33-29.71a3.93,3.93,0,0,0,1.78-3.07V32.09c0-.81-.4-1.27-1-1.27Z" style="fill:#BA68C8"></path></g><path d="M73.13,138.73V128.65c0-8.58,3.32-11.27,5.32-12.43s5.26-2.39,5.26,6.33v10.08c0,8.44-3.4,11.47-5.26,12.55C76.37,146.38,73.13,147.28,73.13,138.73Zm7.2-2.47V123.31c0-3.65-.61-4.43-1.88-3.69s-1.93,2.24-1.93,5.89v13c0,3.53.61,4.23,1.93,3.47S80.33,139.79,80.33,136.26Z" style="fill:#37474f"></path><path d="M86.77,111.67l3.27-1.9c2.9-1.67,6.65-3.35,6.65,2.61v1.39A10.49,10.49,0,0,1,93.84,121v.13c2.12-.7,3.2.94,3.2,4.32v1.45c0,6.2-3.23,9.15-6.87,11.25l-3.4,2Zm3.8,10a5.78,5.78,0,0,0,2.9-5.39V115.1c0-2.65-.76-3.71-2.9-2.48l-.63.36v9Zm.3,13.11a6.06,6.06,0,0,0,2.89-5.54V127c0-2.67-.77-3.71-2.89-2.48l-.93.53v10.23Z" style="fill:#37474f"></path><path d="M99.85,104.11l3.24-1.87V127.3l4.41-2.55v3.4l-7.65,4.42Z" style="fill:#37474f"></path><path d="M109.55,98.51l3.24-1.87V125.1L109.55,127Z" style="fill:#37474f"></path><path d="M116,114V103.92c0-8.58,3.43-11.35,5.47-12.53,3.46-2,4.69,0,4.69,3.33a26.86,26.86,0,0,1-.3,3.57l-2.59,1.49V98.43c0-3.11-.65-4.3-1.89-3.59s-2,2.29-2,5.94v12.9c0,3.53.62,4.26,2,3.47s2-3.3,2-6V107.4l-1.66,1v-2.83l4.81-2.78v14.41l-2.15,1.25-.35-2.5c-.81,2.58-1.84,4-3.29,4.86S116,122.55,116,114Z" style="fill:#37474f"></path><path d="M131.87,85.62l3.73-2.15,4,26.18-3.28,1.89-.58-4.75L131.78,109l-.56,5.42-3.28,1.9Zm3.44,18.13-1.5-13.31-.14.08-1.51,15Z" style="fill:#37474f"></path><path d="M143.58,82.26l-3.43,2v-3.4L150.25,75v3.4l-3.43,2v25.07l-3.24,1.86Z" style="fill:#37474f"></path><path d="M152.43,73.76l3.24-1.87v28.46l-3.24,1.86Z" style="fill:#37474f"></path><path d="M158.73,89.31V79.23C158.73,70.65,162,68,164,66.8s5.26-2.39,5.26,6.33V83.21c0,8.45-3.4,11.48-5.26,12.55C162,97,158.73,97.86,158.73,89.31Zm7.2-2.47v-13c0-3.65-.61-4.43-1.89-3.69s-1.92,2.25-1.92,5.9V89c0,3.53.61,4.23,1.92,3.47S165.93,90.37,165.93,86.84Z" style="fill:#37474f"></path><path d="M172.36,62.25,175,60.73l5.17,16.06.08,0c-.11-1.7-.34-4.06-.34-8.47V57.89l2.9-1.67V84.68l-2.65,1.53L175,70.64l-.1.06c.11,2,.34,4.22.34,10v8.37l-2.88,1.66Z" style="fill:#37474f"></path><path d="M186,73.73l2.51-1.45v1.39c0,3.06.53,4.44,2.1,3.53a4.06,4.06,0,0,0,1.9-3.74,5,5,0,0,0-1.5-4l-3.37-3.4a7.56,7.56,0,0,1-1.88-5.33,10.67,10.67,0,0,1,4.91-9.28c3.78-2.18,4.89.32,4.89,3.21a26.19,26.19,0,0,1-.35,3.6l-2.5,1.44V58.36c0-3-.61-4.33-2.07-3.48a4.55,4.55,0,0,0-.8,6.51l3.76,3.89A8,8,0,0,1,195.67,71a10.88,10.88,0,0,1-5.08,9.5c-3.87,2.23-5-.13-5-3.16A21.25,21.25,0,0,1,186,73.73Z" style="fill:#37474f"></path></g></g></svg>
