<svg id="visual" viewBox="0 0 900 600" width="900" height="600" xmlns="http://www.w3.org/2000/svg" xmlns:xlink="http://www.w3.org/1999/xlink" version="1.1"><rect x="0" y="0" width="900" height="600" fill="#FFFFFF"></rect><path d="M0 59L16.7 61.5C33.3 64 66.7 69 100 81.2C133.3 93.3 166.7 112.7 200 123.3C233.3 134 266.7 136 300 128.5C333.3 121 366.7 104 400 86.8C433.3 69.7 466.7 52.3 500 59.8C533.3 67.3 566.7 99.7 600 112C633.3 124.3 666.7 116.7 700 103.8C733.3 91 766.7 73 800 79.2C833.3 85.3 866.7 115.7 883.3 130.8L900 146L900 0L883.3 0C866.7 0 833.3 0 800 0C766.7 0 733.3 0 700 0C666.7 0 633.3 0 600 0C566.7 0 533.3 0 500 0C466.7 0 433.3 0 400 0C366.7 0 333.3 0 300 0C266.7 0 233.3 0 200 0C166.7 0 133.3 0 100 0C66.7 0 33.3 0 16.7 0L0 0Z" fill="#4d4d4d" stroke-linecap="round" stroke-linejoin="miter"></path></svg>